<?xml version="1.0" encoding="utf-8"?>
<!-- Generator: Adobe Illustrator 21.0.2, SVG Export Plug-In . SVG Version: 6.00 Build 0)  -->
<svg version="1.1" id="Layer_1" xmlns="http://www.w3.org/2000/svg" xmlns:xlink="http://www.w3.org/1999/xlink" x="0px" y="0px"
	 viewBox="0 0 300 300" style="enable-background:new 0 0 300 300;" xml:space="preserve">
<style type="text/css">
	.st0{fill:#FDE897;}
	.st1{fill:#A1B2C2;}
</style>
<circle class="st0" cx="150" cy="150" r="129"/>
<g>
	<g>
		<g>
			<path class="st1" d="M209.1,90H90.9c-1.1,0-1.9,0.8-1.9,1.9v24.5v91.8c0,1.1,0.8,1.9,1.9,1.9h118.3c1.1,0,1.9-0.8,1.9-1.9v-91.8
				V91.9C211,90.8,210.2,90,209.1,90z M207.2,206.2H92.8v-88h114.5V206.2L207.2,206.2z M207.2,114.5H92.8V93.8h114.5V114.5
				L207.2,114.5z"/>
		</g>
	</g>
	<g>
		<g>
			<path class="st1" d="M190.8,98.1h-22.4c-1.1,0-1.9,0.8-1.9,1.9c0,1.1,0.8,1.9,1.9,1.9h22.4c1.1,0,1.9-0.8,1.9-1.9
				C192.7,99,191.8,98.1,190.8,98.1z"/>
		</g>
	</g>
	<g>
		<g>
			<path class="st1" d="M201,98.1h-4.1c-1.1,0-1.9,0.8-1.9,1.9c0,1.1,0.8,1.9,1.9,1.9h4.1c1.1,0,1.9-0.8,1.9-1.9
				C202.9,99,202,98.1,201,98.1z"/>
		</g>
	</g>
	<g>
		<g>
			<path class="st1" d="M152,96.1c-4.4,0-8,3.6-8,8s3.6,8,8,8c4.4,0,8-3.6,8-8S156.5,96.1,152,96.1z M152,108.3
				c-2.3,0-4.2-1.9-4.2-4.2s1.9-4.2,4.2-4.2c2.3,0,4.2,1.9,4.2,4.2S154.4,108.3,152,108.3z"/>
		</g>
	</g>
	<g>
		<g>
			<path class="st1" d="M129.6,96.1c-4.4,0-8,3.6-8,8s3.6,8,8,8c4.4,0,8-3.6,8-8S134,96.1,129.6,96.1z M129.6,108.3
				c-2.3,0-4.2-1.9-4.2-4.2s1.9-4.2,4.2-4.2c2.3,0,4.2,1.9,4.2,4.2S131.9,108.3,129.6,108.3z"/>
		</g>
	</g>
	<g>
		<g>
			<path class="st1" d="M107.2,96.1c-4.4,0-8,3.6-8,8s3.6,8,8,8s8-3.6,8-8S111.6,96.1,107.2,96.1z M107.2,108.3
				c-2.3,0-4.2-1.9-4.2-4.2s1.9-4.2,4.2-4.2s4.2,1.9,4.2,4.2S109.5,108.3,107.2,108.3z"/>
		</g>
	</g>
	<g>
		<g>
			<path class="st1" d="M129.3,144.3c0.1-1.5-0.5-3-1.5-4.1s-2.5-1.8-4-1.8c-1.5-0.1-3,0.5-4.1,1.5l-19.4,18.4
				c-1.2,1.1-1.8,2.7-1.8,4.2c0,1.6,0.7,3.1,1.9,4.2l19.3,17.3c1.1,0.9,2.4,1.5,3.8,1.5l0,0c1.6,0,3.2-0.7,4.3-1.9
				c2.1-2.4,1.9-6-0.4-8.1l-14.8-13.1l14.8-14.1C128.6,147.2,129.2,145.8,129.3,144.3z M124.8,145.5L108.4,161
				c-0.4,0.4-0.6,0.9-0.6,1.4c0,0.6,0.2,1.1,0.6,1.4l16.2,14.6c0.8,0.7,0.8,1.9,0.1,2.7c-0.4,0.4-0.8,0.6-1.4,0.6
				c-0.5,0-0.9-0.1-1.3-0.5l-19.3-17.3c-0.4-0.4-0.6-0.8-0.6-1.4c0-0.6,0.2-1.1,0.6-1.4l19.3-18.4c0.4-0.4,0.8-0.5,1.3-0.5h0.1
				c0.5,0,1,0.2,1.3,0.6c0.4,0.4,0.6,0.8,0.5,1.3C125.4,144.7,125.2,145.2,124.8,145.5z"/>
		</g>
	</g>
	<g>
		<g>
			<path class="st1" d="M199.9,158.3L180.5,140c-2.3-2.2-5.9-2.1-8.1,0.2c-2.2,2.3-2.1,5.9,0.2,8.1l14.8,14.1l-14.7,13.1
				c-2.4,2.1-2.5,5.8-0.4,8.1c1.1,1.2,2.7,1.9,4.3,1.9l0,0c1.4,0,2.7-0.5,3.8-1.5l19.3-17.3c1.2-1.1,1.9-2.6,1.9-4.2
				C201.6,161,201,159.5,199.9,158.3z M197.2,163.9l-19.3,17.3c-0.4,0.3-0.8,0.5-1.3,0.5l0,0c-0.6,0-1.1-0.2-1.4-0.6
				c-0.7-0.8-0.6-2,0.1-2.7l16.2-14.6c0.4-0.4,0.6-0.8,0.6-1.4c0-0.6-0.2-1.1-0.6-1.4l-16.4-15.5c-0.8-0.7-0.8-2-0.1-2.7
				c0.4-0.4,0.9-0.6,1.4-0.6s0.9,0.1,1.3,0.5l19.3,18.4c0.4,0.4,0.6,0.9,0.6,1.4l0,0l0,0C197.8,163,197.5,163.5,197.2,163.9z"/>
		</g>
	</g>
	<g>
		<g>
			<path class="st1" d="M164.7,144.7c-0.4-1.5-1.3-2.7-2.7-3.4l0,0c-2.7-1.5-6.3-0.6-7.8,2.1L134.9,177c-1.5,2.7-0.6,6.3,2.1,7.8
				c0.8,0.5,1.8,0.8,2.9,0.8c2,0,3.9-1.1,5-2.9l19.3-33.6C164.9,147.7,165.1,146.2,164.7,144.7z M160.8,147.2l-19.3,33.6
				c-0.4,0.6-1,1-1.7,1c-0.4,0-0.6-0.1-1-0.3c-0.9-0.5-1.2-1.7-0.7-2.6l19.3-33.6c0.4-0.6,1-1,1.7-1c0.4,0,0.6,0.1,1,0.3
				c0.4,0.3,0.8,0.6,0.9,1.1C161.2,146.2,161.1,146.7,160.8,147.2z"/>
		</g>
	</g>
</g>
</svg>
