<?xml version="1.0" encoding="utf-8"?>
<!-- Generator: Adobe Illustrator 21.1.0, SVG Export Plug-In . SVG Version: 6.00 Build 0)  -->
<svg version="1.1" id="Layer_1" xmlns="http://www.w3.org/2000/svg" xmlns:xlink="http://www.w3.org/1999/xlink" x="0px" y="0px"
	 viewBox="0 0 300 177" style="enable-background:new 0 0 300 177;" xml:space="preserve">
<style type="text/css">
	.st0{fill:#FDE897;}
</style>
<path class="st0" d="M152.1,172c45.1,0,81.6-36.6,81.6-81.6S197.1,8.7,152.1,8.7S70.4,45.3,70.4,90.4S107,172,152.1,172z
	 M152.1,25.2c35.9,0,65.1,29.3,65.1,65.1s-29.3,65.1-65.1,65.1s-65.1-29.3-65.1-65.1S116.2,25.2,152.1,25.2z"/>
<path class="st0" d="M152.1,127.9c10.9,0,21.2-4.7,28.3-13c3.1-3.5,2.6-8.7-0.7-11.6c-3.5-3.1-8.7-2.6-11.6,0.7
	c-4,4.7-9.7,7.3-15.8,7.3c-6.1,0-11.8-2.6-15.8-7.3c-3.1-3.5-8.3-3.8-11.6-0.7c-3.5,3.1-3.8,8.3-0.7,11.6
	C131.1,123.2,141.2,127.9,152.1,127.9L152.1,127.9z"/>
</svg>
