<?xml version="1.0" encoding="utf-8"?>
<!-- Generator: Adobe Illustrator 21.0.2, SVG Export Plug-In . SVG Version: 6.00 Build 0)  -->
<svg version="1.1" id="Layer_1" xmlns="http://www.w3.org/2000/svg" xmlns:xlink="http://www.w3.org/1999/xlink" x="0px" y="0px"
	 viewBox="0 0 300 300" style="enable-background:new 0 0 300 300;" xml:space="preserve">
<style type="text/css">
	.st0{fill:#FDE897;}
	.st1{fill:#A1B2C2;}
</style>
<g>
	<polygon class="st0" points="62.4,7.7 290,185.4 22.2,293.6 	"/>
</g>
<path class="st1" d="M118.1,153.5c19.1,0,34.6-15.5,34.6-34.6c0-19.1-15.5-34.6-34.6-34.6s-34.6,15.5-34.6,34.6
	C83.5,138,99,153.5,118.1,153.5z M118.1,91.3c15.2,0,27.6,12.4,27.6,27.6s-12.4,27.6-27.6,27.6s-27.6-12.4-27.6-27.6
	S102.9,91.3,118.1,91.3z"/>
<path class="st1" d="M118.1,167.5c28,0,50.9,21.8,52.7,49.4H89.8c-1.9,0-3.5,1.6-3.5,3.5c0,1.9,1.6,3.5,3.5,3.5h84.7
	c1.9,0,3.5-1.6,3.5-3.5c0-33-26.9-59.9-59.9-59.9s-59.9,26.9-59.9,59.9c0,1.9,1.6,3.5,3.5,3.5h14c1.9,0,3.5-1.6,3.5-3.5
	c0-1.9-1.6-3.5-3.5-3.5H65.4C67.2,189.4,90.2,167.5,118.1,167.5L118.1,167.5z"/>
<path class="st1" d="M118.1,134.8c4.6,0,9-2,12-5.5c1.3-1.5,1.1-3.7-0.3-4.9c-1.5-1.3-3.7-1.1-4.9,0.3c-1.7,2-4.1,3.1-6.7,3.1
	s-5-1.1-6.7-3.1c-1.3-1.5-3.5-1.6-4.9-0.3c-1.5,1.3-1.6,3.5-0.3,4.9C109.2,132.8,113.5,134.8,118.1,134.8L118.1,134.8z"/>
</svg>
