<?xml version="1.0" encoding="utf-8"?>
<!-- Generator: Adobe Illustrator 21.1.0, SVG Export Plug-In . SVG Version: 6.00 Build 0)  -->
<svg version="1.1" id="Layer_1" xmlns="http://www.w3.org/2000/svg" xmlns:xlink="http://www.w3.org/1999/xlink" x="0px" y="0px"
	 viewBox="0 0 300 245" style="enable-background:new 0 0 300 245;" xml:space="preserve">
<style type="text/css">
	.st0{fill:#FDE897;}
</style>
<g>
	<g>
		<path class="st0" d="M278.6,215.8h-46.9V88.6c0-6.3-5.1-11.4-11.4-11.4h-84.9v-4h5.7c2.4,0,4.3-1.9,4.3-4.3V6.4
			c0-2.4-1.9-4.3-4.3-4.3H120c-2.4,0-4.3,1.9-4.3,4.3v62.5c0,2.4,1.9,4.3,4.3,4.3h6.8v4H37.5c-6.3,0-11.4,5.1-11.4,11.4v136.6
			c0,10.4,8.5,18.8,18.8,18.8h49.7h132.8h38.1c9.6,0,17.3-7.8,17.3-17.3v-6.6C282.9,217.7,281,215.8,278.6,215.8z M124.3,64.6V10.7
			h12.4v53.8L124.3,64.6L124.3,64.6z M135.4,104.5v-4.2h73.1v100.8H49.3V100.4h77.5v4.2c0,1.6-1.3,2.9-2.9,2.9H74.6
			c-6.4,0-11.5,5.2-11.5,11.5v17c0,6.4,5.2,11.5,11.5,11.5h4.8v28c0,4.6,2.4,8.9,6.3,11.3c4,2.5,9,2.6,13.3,0.5
			c0.7-0.3,1.8-0.8,3.7-0.8c3.1,0,4.5,1.1,6.7,3c2.5,2.1,5.9,5,12.2,5c6.3,0,9.7-2.9,12.2-5c2.2-1.9,3.5-3,6.7-3
			c3.1,0,4.5,1.1,6.7,3c2.5,2.1,5.9,5,12.2,5s9.7-2.9,12.2-5c0.9-0.7,1.7-1.5,2.6-2c5.2-3.1,8.4-8.8,8.4-14.9V166h4.4
			c7.2,0,13-5.8,13-13v-19.6c0-7.2-5.8-13-13-13H92.4c-7.2,0-13,5.8-13,13v5.5h-4.8c-1.6,0-2.9-1.3-2.9-2.9v-17
			c0-1.6,1.3-2.9,2.9-2.9h49.3C130.3,116,135.4,110.9,135.4,104.5z M89.4,138.9H88v-5.5c0-2.4,2-4.4,4.4-4.4c2.4,0,4.4,2,4.4,4.4
			V153c0,2.4-2,4.4-4.4,4.4c-2.4,0-4.4-2-4.4-4.4v-5.5h1.4c2.4,0,4.3-1.9,4.3-4.3C93.7,140.8,91.8,138.9,89.4,138.9z M104.7,129
			h82.2c2.4,0,4.4,2,4.4,4.4V153c0,2.4-2,4.4-4.4,4.4h-82.2c0.5-1.4,0.8-2.9,0.8-4.4v-19.6C105.4,131.8,105.2,130.3,104.7,129z
			 M173.9,166v6.6c0,3.1-1.6,6-4.2,7.5c-1.5,0.9-2.7,1.9-3.7,2.8c-2.2,1.9-3.5,3-6.7,3s-4.5-1.1-6.7-3c-2.5-2.1-5.9-5-12.2-5
			c-6.3,0-9.7,2.9-12.2,5c-2.2,1.9-3.5,3-6.7,3c-3.1,0-4.5-1.1-6.7-3c-2.5-2.1-5.9-5-12.2-5c-2.8,0-5.3,0.6-7.6,1.7
			c-1.6,0.8-3.4,0.7-4.8-0.1c-1.4-0.8-2.2-2.3-2.2-3.9v-10.3c1.4,0.5,2.9,0.8,4.4,0.8H173.9z M34.7,88.6c0-1.6,1.3-2.8,2.8-2.8h89.3
			v6H45c-2.4,0-4.3,1.9-4.3,4.3v109.4c0,2.4,1.9,4.3,4.3,4.3h167.8c2.4,0,4.3-1.9,4.3-4.3V96.1c0-2.4-1.9-4.3-4.3-4.3h-77.4v-6h84.9
			c1.6,0,2.8,1.3,2.8,2.8v127.2H34.7V88.6z M44.9,235.4c-5.6,0-10.2-4.6-10.2-10.2v-0.8h42.6v2.3c0,3.2,0.9,6.2,2.4,8.7L44.9,235.4
			L44.9,235.4z M265.6,235.4h-38.1H94.6c-4.8,0-8.7-3.9-8.7-8.7v-2.3h141.6h46.9v2.3h0C274.3,231.5,270.4,235.4,265.6,235.4z"/>
	</g>
</g>
</svg>
