<?xml version="1.0" encoding="utf-8"?>
<!-- Generator: Adobe Illustrator 21.0.2, SVG Export Plug-In . SVG Version: 6.00 Build 0)  -->
<svg version="1.1" id="Layer_1" xmlns="http://www.w3.org/2000/svg" xmlns:xlink="http://www.w3.org/1999/xlink" x="0px" y="0px"
	 viewBox="0 0 300 300" style="enable-background:new 0 0 300 300;" xml:space="preserve">
<style type="text/css">
	.st0{fill:#FDE897;}
	.st1{fill:#A1B2C2;}
</style>
<circle class="st0" cx="150" cy="150" r="142"/>
<g>
	<g>
		<g>
			<path class="st1" d="M233.9,65H65.7c-1.5,0-2.7,1.2-2.7,2.7v34.8V233c0,1.5,1.2,2.7,2.7,2.7h168.2c1.5,0,2.7-1.2,2.7-2.7V102.5
				V67.7C236.6,66.2,235.4,65,233.9,65z M231.2,230.3H68.4V105.2h162.8L231.2,230.3L231.2,230.3z M231.2,99.8H68.4V70.4h162.8
				L231.2,99.8L231.2,99.8z"/>
		</g>
	</g>
	<g>
		<g>
			<path class="st1" d="M207.8,76.6h-31.9c-1.5,0-2.7,1.2-2.7,2.7c0,1.5,1.2,2.7,2.7,2.7h31.9c1.5,0,2.7-1.2,2.7-2.7
				C210.5,77.8,209.3,76.6,207.8,76.6z"/>
		</g>
	</g>
	<g>
		<g>
			<path class="st1" d="M222.3,76.6h-5.8c-1.5,0-2.7,1.2-2.7,2.7c0,1.5,1.2,2.7,2.7,2.7h5.8c1.5,0,2.7-1.2,2.7-2.7
				C225,77.8,223.8,76.6,222.3,76.6z"/>
		</g>
	</g>
	<g>
		<g>
			<path class="st1" d="M152.7,73.7c-6.3,0-11.4,5.1-11.4,11.4s5.1,11.4,11.4,11.4s11.4-5.1,11.4-11.4S159,73.7,152.7,73.7z
				 M152.7,91.1c-3.3,0-6-2.7-6-6s2.7-6,6-6s6,2.7,6,6C158.7,88.4,156,91.1,152.7,91.1z"/>
		</g>
	</g>
	<g>
		<g>
			<path class="st1" d="M120.8,73.7c-6.3,0-11.4,5.1-11.4,11.4s5.1,11.4,11.4,11.4s11.4-5.1,11.4-11.4S127.1,73.7,120.8,73.7z
				 M120.8,91.1c-3.3,0-6-2.7-6-6s2.7-6,6-6c3.3,0,6,2.7,6,6C126.8,88.4,124.1,91.1,120.8,91.1z"/>
		</g>
	</g>
	<g>
		<g>
			<path class="st1" d="M88.9,73.7c-6.3,0-11.4,5.1-11.4,11.4s5.1,11.4,11.4,11.4s11.4-5.1,11.4-11.4S95.2,73.7,88.9,73.7z
				 M88.9,91.1c-3.3,0-6-2.7-6-6s2.7-6,6-6s6,2.7,6,6C94.9,88.4,92.2,91.1,88.9,91.1z"/>
		</g>
	</g>
	<g>
		<g>
			<path class="st1" d="M120.3,142.2c0.1-2.2-0.7-4.2-2.2-5.8c-1.5-1.6-3.5-2.5-5.7-2.5c-2.2-0.1-4.2,0.7-5.8,2.2L79,162.2
				c-1.7,1.6-2.6,3.8-2.5,6c0,2.3,1,4.4,2.7,6l27.5,24.6c1.5,1.3,3.4,2.1,5.4,2.1c0,0,0,0,0,0c2.3,0,4.5-1,6.1-2.7
				c3-3.4,2.7-8.5-0.6-11.5L96.6,168l21.1-20C119.3,146.4,120.2,144.4,120.3,142.2z M114,144l-23.3,22c-0.6,0.5-0.9,1.3-0.8,2
				c0,0.8,0.3,1.5,0.9,2l23.1,20.7c1.1,1,1.2,2.7,0.2,3.8c-0.5,0.6-1.2,0.9-2,0.9c-0.7,0-1.3-0.2-1.8-0.7l-27.5-24.6
				c-0.6-0.5-0.9-1.2-0.9-2c0-0.8,0.3-1.5,0.8-2l27.5-26.1c0.5-0.5,1.2-0.7,1.9-0.7c0,0,0.1,0,0.1,0c0.7,0,1.4,0.3,1.9,0.8
				s0.8,1.2,0.7,1.9C114.8,142.8,114.5,143.5,114,144z"/>
		</g>
	</g>
	<g>
		<g>
			<path class="st1" d="M220.7,162.2l-27.5-26.1c-3.3-3.1-8.4-3-11.5,0.3c-3.1,3.3-3,8.4,0.3,11.5l21.1,20l-20.9,18.7
				c-3.4,3-3.6,8.2-0.6,11.5c1.5,1.7,3.8,2.7,6.1,2.7c0,0,0,0,0,0c2,0,3.9-0.7,5.4-2.1l27.5-24.6c1.7-1.5,2.7-3.7,2.7-6
				C223.2,166,222.3,163.8,220.7,162.2z M216.9,170.1l-27.5,24.6c-0.5,0.4-1.1,0.7-1.8,0.7h0c-0.8,0-1.5-0.3-2-0.9
				c-1-1.1-0.9-2.8,0.2-3.8l23.1-20.7c0.6-0.5,0.9-1.2,0.9-2c0-0.8-0.3-1.5-0.8-2l-23.3-22c-1.1-1-1.1-2.8-0.1-3.8
				c0.5-0.6,1.3-0.8,2-0.8c0.7,0,1.3,0.2,1.9,0.7l27.5,26.1c0.6,0.5,0.9,1.3,0.8,2v0h0C217.8,168.9,217.4,169.6,216.9,170.1z"/>
		</g>
	</g>
	<g>
		<g>
			<path class="st1" d="M170.7,142.8c-0.6-2.1-1.9-3.9-3.8-4.9c0,0,0,0,0,0c-3.9-2.2-8.9-0.9-11.1,3l-27.5,47.8
				c-2.2,3.9-0.9,8.9,3,11.1c1.2,0.7,2.6,1.1,4.1,1.1c2.9,0,5.6-1.6,7.1-4.1l27.5-47.8C171,147.1,171.3,144.9,170.7,142.8z
				 M165.2,146.3l-27.5,47.8c-0.5,0.8-1.4,1.4-2.4,1.4c-0.5,0-0.9-0.1-1.4-0.4c-1.3-0.7-1.7-2.4-1-3.7l27.5-47.8
				c0.5-0.9,1.4-1.4,2.4-1.4c0.5,0,0.9,0.1,1.4,0.4c0.6,0.4,1.1,0.9,1.3,1.6C165.7,144.9,165.6,145.7,165.2,146.3z"/>
		</g>
	</g>
</g>
</svg>
