<?xml version="1.0" encoding="utf-8"?>
<!-- Generator: Adobe Illustrator 21.1.0, SVG Export Plug-In . SVG Version: 6.00 Build 0)  -->
<svg version="1.1" id="Layer_1" xmlns="http://www.w3.org/2000/svg" xmlns:xlink="http://www.w3.org/1999/xlink" x="0px" y="0px"
	 viewBox="0 0 300 177" style="enable-background:new 0 0 300 177;" xml:space="preserve">
<style type="text/css">
	.st0{fill:#FDE897;}
</style>
<g>
	<g>
		<path class="st0" d="M92,39c0.2-4.4-1.4-8.4-4.4-11.6s-7-5-11.4-5c-4.4-0.2-8.4,1.4-11.6,4.4l-55,52c-3.4,3.2-5.2,7.6-5,12
			c0,4.6,2,8.8,5.4,12l54.8,49c3,2.6,6.8,4.2,10.8,4.2l0,0c4.6,0,9-2,12.2-5.4c6-6.8,5.4-16.9-1.2-22.9L44.8,90.4l42-39.8
			C90,47.4,91.8,43.4,92,39z M79.4,42.6L33,86.5c-1.2,1-1.8,2.6-1.6,4c0,1.6,0.6,3,1.8,4l46,41.2c2.2,2,2.4,5.4,0.4,7.6
			c-1,1.2-2.4,1.8-4,1.8c-1.4,0-2.6-0.4-3.6-1.4l-54.8-49c-1.2-1-1.8-2.4-1.8-4s0.6-3,1.6-4l54.8-52c1-1,2.4-1.4,3.8-1.4h0.2
			c1.4,0,2.8,0.6,3.8,1.6c1,1,1.6,2.4,1.4,3.8C81,40.2,80.4,41.6,79.4,42.6z"/>
	</g>
</g>
<g>
	<g>
		<path class="st0" d="M292,78.9l-54.8-52c-6.6-6.2-16.7-6-22.9,0.6s-6,16.7,0.6,22.9l42,39.8l-41.6,37.3c-6.8,6-7.2,16.3-1.2,22.9
			c3,3.4,7.6,5.4,12.2,5.4l0,0c4,0,7.8-1.4,10.8-4.2l54.8-49c3.4-3,5.4-7.4,5.4-12C297,86.5,295.2,82.1,292,78.9z M284.5,94.6
			l-54.8,49c-1,0.8-2.2,1.4-3.6,1.4l0,0c-1.6,0-3-0.6-4-1.8c-2-2.2-1.8-5.6,0.4-7.6l46-41.2c1.2-1,1.8-2.4,1.8-4c0-1.6-0.6-3-1.6-4
			l-46.4-43.8c-2.2-2-2.2-5.6-0.2-7.6c1-1.2,2.6-1.6,4-1.6c1.4,0,2.6,0.4,3.8,1.4l54.8,52c1.2,1,1.8,2.6,1.6,4l0,0l0,0
			C286.3,92.2,285.5,93.6,284.5,94.6z"/>
	</g>
</g>
<g>
	<g>
		<path class="st0" d="M192.4,40.2c-1.2-4.2-3.8-7.8-7.6-9.8l0,0c-7.8-4.4-17.7-1.8-22.1,6l-54.8,95.2c-4.4,7.8-1.8,17.7,6,22.1
			c2.4,1.4,5.2,2.2,8.2,2.2c5.8,0,11.2-3.2,14.1-8.2L191,52.6C193,48.8,193.6,44.4,192.4,40.2z M181.5,47.2l-54.8,95.2
			c-1,1.6-2.8,2.8-4.8,2.8c-1,0-1.8-0.2-2.8-0.8c-2.6-1.4-3.4-4.8-2-7.4l54.8-95.2c1-1.8,2.8-2.8,4.8-2.8c1,0,1.8,0.2,2.8,0.8
			c1.2,0.8,2.2,1.8,2.6,3.2C182.5,44.4,182.3,46,181.5,47.2z"/>
	</g>
</g>
</svg>
