<?xml version="1.0" encoding="utf-8"?>
<!-- Generator: Adobe Illustrator 21.1.0, SVG Export Plug-In . SVG Version: 6.00 Build 0)  -->
<svg version="1.1" id="Layer_1" xmlns="http://www.w3.org/2000/svg" xmlns:xlink="http://www.w3.org/1999/xlink" x="0px" y="0px"
	 viewBox="0 0 300 300" style="enable-background:new 0 0 300 300;" xml:space="preserve">
<style type="text/css">
	.st0{fill:#FDE897;}
</style>
<g>
	<g>
		<path class="st0" d="M290.7,3.7H9.9c-2.6,0-4.8,2.1-4.8,4.8v231v17.4v37.4c0,2.6,2.1,4.8,4.8,4.8h280.8c2.6,0,4.8-2.1,4.8-4.8
			v-37.4v-15V8.2C295.5,5.9,293.3,3.7,290.7,3.7z M286.2,289.5H14.7v-27.8h271.5V289.5L286.2,289.5z M286.2,252.1H14.7v-11.2
			L87,138.2l75.7,105.2c0.7,1.2,1.9,1.9,3.3,1.9c1.4,0.2,2.6-0.2,3.6-1.2l59-55.4l57.6,55.2L286.2,252.1L286.2,252.1z M286.2,231
			l-54.2-52.1c-1.9-1.7-4.5-1.7-6.4,0l-58.3,54.7L90.8,127.4c-1-1.2-2.4-1.9-3.8-1.9l0,0c-1.4,0-2.9,0.7-3.8,1.9l-68.5,97.3V13
			h271.5V231L286.2,231z"/>
	</g>
</g>
<g>
	<g>
		<path class="st0" d="M196.5,93.2c-21.7,0-39.5,17.6-39.5,39.5c0,21.7,17.6,39.5,39.5,39.5s39.5-17.6,39.5-39.5
			C235.7,110.8,218.1,93.2,196.5,93.2z M196.5,162.7c-16.7,0-30.2-13.6-30.2-30.2s13.6-30.2,30.2-30.2s30.2,13.6,30.2,30.2
			C226.5,149.3,212.9,162.7,196.5,162.7z"/>
	</g>
</g>
<g>
	<g>
		<path class="st0" d="M248.6,36.1c-5.9,0-11.4,2.6-15,6.9c-3.6-4.3-9-6.9-15-6.9s-11.4,2.6-15,6.9c-3.6-4.3-9-6.9-15-6.9
			c-10.7,0-19.5,8.8-19.5,19.5c0,2.6,2.1,4.8,4.8,4.8c2.6,0,4.8-2.1,4.8-4.8c0-5.7,4.5-10.2,10.2-10.2c5.7,0,10.2,4.5,10.2,10.2
			c0,2.6,2.1,4.8,4.8,4.8s4.8-2.1,4.8-4.8c0-5.7,4.5-10.2,10.2-10.2c5.7,0,10.2,4.5,10.2,10.2c0,2.6,2.1,4.8,4.8,4.8
			s4.8-2.1,4.8-4.8c0-5.7,4.5-10.2,10.2-10.2c5.7,0,10.2,4.5,10.2,10.2c0,2.6,2.1,4.8,4.8,4.8c2.6,0,4.8-2.1,4.8-4.8
			C268.1,44.9,259.3,36.1,248.6,36.1z"/>
	</g>
</g>
<g>
	<g>
		<path class="st0" d="M87,75.8c-5.9,0-11.4,2.6-15,6.9c-3.6-4.3-9-6.9-15-6.9c-10.7,0-19.5,8.8-19.5,19.5c0,2.6,2.1,4.8,4.8,4.8
			c2.6,0,4.8-2.1,4.8-4.8c0-5.7,4.5-10.2,10.2-10.2c5.7,0,10.2,4.5,10.2,10.2c0,2.6,2.1,4.8,4.8,4.8s4.8-2.1,4.8-4.8
			c0-5.7,4.5-10.2,10.2-10.2c5.7,0,10.2,4.5,10.2,10.2c0,2.6,2.1,4.8,4.8,4.8s4.8-2.1,4.8-4.8C106.5,84.6,97.7,75.8,87,75.8z"/>
	</g>
</g>
</svg>
