<?xml version="1.0" encoding="utf-8"?>
<!-- Generator: Adobe Illustrator 21.0.2, SVG Export Plug-In . SVG Version: 6.00 Build 0)  -->
<svg version="1.1" id="Layer_1" xmlns="http://www.w3.org/2000/svg" xmlns:xlink="http://www.w3.org/1999/xlink" x="0px" y="0px"
	 viewBox="0 0 300 300" style="enable-background:new 0 0 300 300;" xml:space="preserve">
<style type="text/css">
	.st0{fill:#FDE897;}
	.st1{fill:#A1B2C2;}
</style>
<g>
	<polygon class="st0" points="273.5,292.8 4.9,186.7 231.1,7.2 	"/>
</g>
<g>
	<g>
		<path class="st1" d="M238,101.4H120c-1.1,0-2,0.9-2,2v97.1v7.3v15.7c0,1.1,0.9,2,2,2h118c1.1,0,2-0.9,2-2v-15.7v-6.3v-98.2
			C240,102.3,239.1,101.4,238,101.4z M236.1,221.5H122v-11.7h114.1L236.1,221.5L236.1,221.5z M236.1,205.8H122v-4.7l30.4-43.2
			l31.8,44.2c0.3,0.5,0.8,0.8,1.4,0.8c0.6,0.1,1.1-0.1,1.5-0.5l24.8-23.3l24.2,23.2L236.1,205.8L236.1,205.8z M236.1,196.9
			L213.3,175c-0.8-0.7-1.9-0.7-2.7,0l-24.5,23L154,153.4c-0.4-0.5-1-0.8-1.6-0.8c0,0,0,0,0,0c-0.6,0-1.2,0.3-1.6,0.8L122,194.3v-89
			h114.1L236.1,196.9L236.1,196.9z"/>
	</g>
</g>
<g>
	<g>
		<path class="st1" d="M198.4,139c-9.1,0-16.6,7.4-16.6,16.6c0,9.1,7.4,16.6,16.6,16.6s16.6-7.4,16.6-16.6
			C214.9,146.4,207.5,139,198.4,139z M198.4,168.2c-7,0-12.7-5.7-12.7-12.7c0-7,5.7-12.7,12.7-12.7c7,0,12.7,5.7,12.7,12.7
			C211,162.6,205.3,168.2,198.4,168.2z"/>
	</g>
</g>
<g>
	<g>
		<path class="st1" d="M220.3,115c-2.5,0-4.8,1.1-6.3,2.9c-1.5-1.8-3.8-2.9-6.3-2.9c-2.5,0-4.8,1.1-6.3,2.9
			c-1.5-1.8-3.8-2.9-6.3-2.9c-4.5,0-8.2,3.7-8.2,8.2c0,1.1,0.9,2,2,2c1.1,0,2-0.9,2-2c0-2.4,1.9-4.3,4.3-4.3c2.4,0,4.3,1.9,4.3,4.3
			c0,1.1,0.9,2,2,2c1.1,0,2-0.9,2-2c0-2.4,1.9-4.3,4.3-4.3s4.3,1.9,4.3,4.3c0,1.1,0.9,2,2,2c1.1,0,2-0.9,2-2c0-2.4,1.9-4.3,4.3-4.3
			c2.4,0,4.3,1.9,4.3,4.3c0,1.1,0.9,2,2,2c1.1,0,2-0.9,2-2C228.5,118.7,224.8,115,220.3,115z"/>
	</g>
</g>
<g>
	<g>
		<path class="st1" d="M152.4,131.7c-2.5,0-4.8,1.1-6.3,2.9c-1.5-1.8-3.8-2.9-6.3-2.9c-4.5,0-8.2,3.7-8.2,8.2c0,1.1,0.9,2,2,2
			c1.1,0,2-0.9,2-2c0-2.4,1.9-4.3,4.3-4.3c2.4,0,4.3,1.9,4.3,4.3c0,1.1,0.9,2,2,2c1.1,0,2-0.9,2-2c0-2.4,1.9-4.3,4.3-4.3
			c2.4,0,4.3,1.9,4.3,4.3c0,1.1,0.9,2,2,2c1.1,0,2-0.9,2-2C160.6,135.4,156.9,131.7,152.4,131.7z"/>
	</g>
</g>
</svg>
