<?xml version="1.0" encoding="utf-8"?>
<!-- Generator: Adobe Illustrator 21.1.0, SVG Export Plug-In . SVG Version: 6.00 Build 0)  -->
<svg version="1.1" id="Layer_1" xmlns="http://www.w3.org/2000/svg" xmlns:xlink="http://www.w3.org/1999/xlink" x="0px" y="0px"
	 viewBox="0 0 300 245" style="enable-background:new 0 0 300 245;" xml:space="preserve">
<style type="text/css">
	.st0{fill:#FDE897;}
</style>
<g>
	<path class="st0" d="M161.5,194.7h-24.9c-2.3,0-4.1,1.9-4.1,4.1s1.9,4.1,4.1,4.1h24.9c2.3,0,4.1-1.9,4.1-4.1
		S163.8,194.7,161.5,194.7z"/>
	<path class="st0" d="M279,215.1c0-0.2,0-0.3-0.1-0.5c0,0,0-0.1,0-0.1c0-0.1-0.1-0.3-0.1-0.4c0,0,0-0.1,0-0.1
		c-0.1-0.1-0.1-0.3-0.2-0.4c0,0,0,0,0,0c0,0-23-43.3-23-43.3v-113c0-2.3-1.9-4.1-4.1-4.1s-4.1,1.9-4.1,4.1v109.9H50.8V50.3
		c0-6.9,5.6-12.4,12.4-12.4h164.6c2.3,0,4.1-1.9,4.1-4.1s-1.9-4.1-4.1-4.1H63.3c-11.4,0-20.7,9.3-20.7,20.7v119.9l-23,43.3
		c0,0,0,0.1,0,0.1c-0.1,0.1-0.1,0.3-0.2,0.4c0,0,0,0.1,0,0.1c0,0.1-0.1,0.2-0.1,0.4c0,0,0,0.1,0,0.1c0,0.2-0.1,0.3-0.1,0.5
		c0,0.1,0,0.3,0,0.4v8.3c0,11.4,9.3,20.7,20.7,20.7h218.5c11.4,0,20.7-9.3,20.7-20.7v-8.3C279,215.4,279,215.2,279,215.1L279,215.1z
		 M49.2,175.4h199.7l19.1,36H30.1C30.1,211.3,49.2,175.4,49.2,175.4z M258.3,236.2H39.7c-6.9,0-12.4-5.6-12.4-12.4v-4.1h243.4v4.1
		C270.7,230.7,265.1,236.2,258.3,236.2z"/>
	<path class="st0" d="M252.7,14.4h12.1l-99,99l-30.7-30.7c-1.6-1.6-4.2-1.6-5.9,0l-69,69c-1.6,1.6-1.6,4.2,0,5.9
		c0.8,0.8,1.9,1.2,2.9,1.2c1.1,0,2.1-0.4,2.9-1.2l66-66l30.7,30.7c1.6,1.6,4.2,1.6,5.9,0l102-102v12.1c0,2.3,1.9,4.1,4.1,4.1
		s4.1-1.9,4.1-4.1V10.2c0-2.3-1.9-4.1-4.1-4.1h-22.1c-2.3,0-4.1,1.9-4.1,4.1S250.4,14.4,252.7,14.4L252.7,14.4z"/>
</g>
</svg>
