<?xml version="1.0" encoding="utf-8"?>
<!-- Generator: Adobe Illustrator 21.1.0, SVG Export Plug-In . SVG Version: 6.00 Build 0)  -->
<svg version="1.1" id="Layer_1" xmlns="http://www.w3.org/2000/svg" xmlns:xlink="http://www.w3.org/1999/xlink" x="0px" y="0px"
	 viewBox="0 0 300 245" style="enable-background:new 0 0 300 245;" xml:space="preserve">
<style type="text/css">
	.st0{fill:#FDE897;}
</style>
<g>
	<g>
		<path class="st0" d="M146.7,57.3c-14.5,0-26.3,11.8-26.3,26.3s11.8,26.3,26.3,26.3S173,98.1,173,83.6
			C173,69.1,161.2,57.3,146.7,57.3z M146.7,100.2c-9.2,0-16.6-7.5-16.6-16.6S137.5,67,146.7,67c9.2,0,16.6,7.5,16.6,16.6
			C163.3,92.7,155.8,100.2,146.7,100.2z"/>
	</g>
</g>
<g>
	<g>
		<path class="st0" d="M261.8,49.2c-9.5,0-17.2,7.7-17.2,17.2s7.7,17.2,17.2,17.2c9.5,0,17.2-7.7,17.2-17.2
			C279,57,271.3,49.2,261.8,49.2z M261.8,74c-4.2,0-7.5-3.4-7.5-7.5s3.4-7.5,7.5-7.5s7.5,3.4,7.5,7.5C269.3,70.7,265.9,74,261.8,74z
			"/>
	</g>
</g>
<g>
	<g>
		<path class="st0" d="M275.5,2.9l-70.5,0c-10.8,0-19.5,8.8-19.5,19.5v22.3h-29.1c0,0,0,0,0,0H50.5c0,0,0,0,0,0H31.7
			C20.3,44.6,11,53.9,11,65.4v124.5c0,11.4,9.3,20.7,20.7,20.7h74.2l-6.5,26.6c0,0,0,0,0,0.1c0,0.1,0,0.2-0.1,0.4c0,0.1,0,0.1,0,0.2
			c0,0.1,0,0.2,0,0.4c0,0.1,0,0.1,0,0.2c0,0,0,0,0,0c0,0.1,0,0.3,0,0.4c0,0,0,0,0,0.1c0,0.2,0,0.4,0.1,0.5c0,0,0,0,0,0.1
			c0,0.1,0.1,0.3,0.1,0.4c0,0,0,0.1,0,0.1c0,0.1,0.1,0.2,0.1,0.4c0,0,0,0.1,0.1,0.1c0.1,0.1,0.1,0.2,0.2,0.3c0,0.1,0.1,0.1,0.1,0.1
			c0.1,0.1,0.1,0.2,0.2,0.3c0,0,0,0.1,0.1,0.1c0,0,0,0,0,0c0.1,0.1,0.2,0.2,0.3,0.3c0,0,0,0.1,0.1,0.1c0.1,0.1,0.2,0.2,0.4,0.3
			c0,0,0.1,0.1,0.1,0.1c0.1,0.1,0.2,0.2,0.3,0.2c0,0,0.1,0.1,0.1,0.1c0.1,0.1,0.2,0.1,0.3,0.2c0,0,0.1,0,0.1,0.1
			c0.1,0.1,0.2,0.1,0.3,0.1c0,0,0.1,0,0.1,0.1c0.1,0,0.2,0.1,0.4,0.1c0,0,0.1,0,0.1,0c0.1,0,0.3,0,0.4,0.1c0,0,0.1,0,0.1,0
			c0.2,0,0.4,0,0.5,0h58.4h38.4c2.7,0,4.8-2.2,4.8-4.8c0-2.7-2.2-4.8-4.8-4.8h-32.2l5.6-22.9l84.8,0c10.2,0,18.5-8.3,18.5-18.5
			v-41.9c9.7-1.1,17.3-9.4,17.3-19.4V22.4C295,11.6,286.2,2.9,275.5,2.9z M210.7,22.4c0-5.4,4.4-9.8,9.8-9.8h55
			c5.4,0,9.8,4.4,9.8,9.8v5.7h-74.7V22.4z M210.7,37.8h74.7v76.9H283l-24.4-26.8c-0.9-1-2.2-1.6-3.6-1.6c-1.4,0-2.7,0.6-3.6,1.6
			l-6.9,7.6l-17.2-18.9c-0.9-1-2.2-1.6-3.6-1.6c-1.4,0-2.7,0.6-3.6,1.6l-9.5,10.4L210.7,37.8L210.7,37.8z M269.9,114.7H262l-10.9-12
			l4-4.4L269.9,114.7z M210.7,101l0.2,0.2L223.7,87l25.2,27.7h-38.2V101z M195.1,22.4c0-4.9,3.7-9,8.4-9.7c-1.7,2.9-2.6,6.2-2.6,9.7
			v108.3c0,3.5,0.9,6.9,2.6,9.7c-4.8-0.7-8.4-4.8-8.4-9.7L195.1,22.4L195.1,22.4z M41.7,153.7l39-40.1l51.8,57H41.7V153.7z
			 M123.3,146.2l11.6-12.8l33.9,37.3h-23.3v0L123.3,146.2z M34.2,200.9h-2.5c-6.1,0-11-4.9-11-11V65.4c0-6.1,4.9-11,11-11h2.5
			C32.8,57,32,60,32,63.2V192C32,195.2,32.8,198.2,34.2,200.9z M158.7,233.5h-48.5l5.6-22.9h48.5L158.7,233.5z M268,192
			c0,4.9-4,8.8-8.8,8.8H50.5c-4.9,0-8.8-4-8.8-8.8v-11.6H268V192z M268,170.7h-86l-43.4-47.8c-0.9-1-2.2-1.6-3.6-1.6
			c-1.4,0-2.7,0.6-3.6,1.6L116.8,139l-32.4-35.6c-0.9-1-2.2-1.6-3.5-1.6c-1.4,0-2.6,0.5-3.6,1.5l-35.6,36.6V63.2
			c0-4.9,4-8.8,8.8-8.8h135v76.4c0,10.8,8.8,19.5,19.5,19.5l63,0L268,170.7L268,170.7z M285.3,130.7c0,5.4-4.4,9.8-9.8,9.8l-55,0
			c-5.4,0-9.8-4.4-9.8-9.8v-6.3h74.7L285.3,130.7L285.3,130.7z"/>
	</g>
</g>
</svg>
