<?xml version="1.0" encoding="utf-8"?>
<!-- Generator: Adobe Illustrator 21.0.2, SVG Export Plug-In . SVG Version: 6.00 Build 0)  -->
<svg version="1.1" id="Layer_1" xmlns="http://www.w3.org/2000/svg" xmlns:xlink="http://www.w3.org/1999/xlink" x="0px" y="0px"
	 viewBox="0 0 201.1 329.8" style="enable-background:new 0 0 201.1 329.8;" xml:space="preserve">
<style type="text/css">
	.st0{fill:#FFFFFF;}
</style>
<path class="st0" d="M109.7,290.4c-17.7,0-32-5.4-42.8-16.2c-10.9-10.8-16.3-25.3-16.4-43.6c0-17.1,5.4-31.1,16.2-42.1
	s25.1-16.5,42.8-16.6c17.3,0,32.6,5.2,46,15.7l3.7,9.5l41.9-0.1L122.4,0H83L4,197.2h12.4c-3.6,10.4-5.4,21.6-5.5,33.7
	c0,28.3,9.4,51.8,28.3,70.6s42.3,28.2,70.1,28.3c28.2,0,52.3-8.8,72.4-26.3l-26.3-28.8C142.6,285.2,127.3,290.4,109.7,290.4z
	 M103.6,52.6l29.2,74.9H73.7L103.6,52.6z"/>
</svg>
