<?xml version="1.0" encoding="utf-8"?>
<!-- Generator: Adobe Illustrator 21.0.2, SVG Export Plug-In . SVG Version: 6.00 Build 0)  -->
<svg version="1.1" id="Layer_1" xmlns="http://www.w3.org/2000/svg" xmlns:xlink="http://www.w3.org/1999/xlink" x="0px" y="0px"
	 viewBox="0 0 360 360" style="enable-background:new 0 0 360 360;" xml:space="preserve">
<style type="text/css">
	.st0{fill:#CAEAF2;}
	.st1{fill:#A7A9AC;}
</style>
<path class="st0" d="M197.7,303.1c-17.7,0-32-5.4-42.8-16.2c-10.9-10.8-16.3-25.3-16.4-43.6c0-17.1,5.4-31.1,16.2-42.1
	c10.8-11,25.1-16.5,42.8-16.6c17.3,0,32.6,5.2,46,15.7l3.7,9.5l41.9-0.1l-78.7-197h-39.4L92,209.9h12.4c-3.6,10.4-5.4,21.6-5.5,33.7
	c0,28.3,9.4,51.8,28.3,70.6c18.9,18.8,42.3,28.2,70.1,28.3c28.2,0,52.3-8.8,72.4-26.3l-26.3-28.8
	C230.6,297.9,215.3,303.1,197.7,303.1z M191.6,65.3l29.2,74.9h-59.1L191.6,65.3z"/>
</svg>
