<?xml version="1.0" encoding="utf-8"?>
<!-- Generator: Adobe Illustrator 21.0.2, SVG Export Plug-In . SVG Version: 6.00 Build 0)  -->
<svg version="1.1" id="Layer_1" xmlns="http://www.w3.org/2000/svg" xmlns:xlink="http://www.w3.org/1999/xlink" x="0px" y="0px"
	 viewBox="0 0 595 314" style="enable-background:new 0 0 595 314;" xml:space="preserve">
<style type="text/css">
	.st0{opacity:0.45;}
	.st1{fill:#77C9D4;}
	.st2{opacity:0.5;}
	.st3{fill:#57BC91;}
	.st4{opacity:0.35;}
</style>
<g class="st0">
	<path class="st1" d="M193.6,128.9L133,296.1L18.5,160L193.6,128.9 M198.2,125L12.8,158L134,302L198.2,125L198.2,125z"/>
</g>
<g class="st2">
	<path class="st3" d="M159.7,164.9l62.4,28.1l-55.5,40L159.7,164.9 M157.4,161.7l7.6,75l61.2-44.1L157.4,161.7L157.4,161.7z"/>
</g>
<g class="st2">
	<path class="st1" d="M480.4,240.9l17.2,66.3l-66-18.3L480.4,240.9 M481.5,237.1l-53.8,52.9l72.7,20.1L481.5,237.1L481.5,237.1z"/>
</g>
<g class="st4">
	<path class="st3" d="M482.8,168.7l80.5,42.1l-42.1,80.5l-80.5-42.1L482.8,168.7 M482,166l-44,84l84,44l44-84L482,166L482,166z"/>
</g>
</svg>
